PathFileType	4	(X/Y/Z)	Patient4_TMGait_0pt6_02_right_37.trc.trc
DataRate	CameraRate	NumFrames	NumMarkers	Units	OrigDataRate	OrigDataStartFrame	OrigNumFrames
82.352941176470	82.352941176470	4	33	mm	82.352941176470	53	       141
Frame#	Time	Sacral			L.Shoulder			Chest			R.Shoulder			Neck			R.ASIS			L.ASIS			R.Thigh.Superior			R.Thigh.Lateral			R.Thigh.Inferior			R.Patella			L.Thigh.Superior			L.Thigh.Lateral			L.Thigh.Inferior			L.Patella			L.Shank.Superior			L.Shank.Lateral			L.Shank.Inferior			R.Shank.Superior			R.Shank.Lateral			R.Shank.Inferior			R.Heel			R.Midfoot.Superior			R.Midfoot.Lateral			R.Toe			L.Heel			L.Midfoot.Lateral			L.Midfoot.Superior			L.Toe			L.Elbow			L.Wrist			R.Elbow			R.Wrist			
		X1	Y1	Z1	X2	Y2	Z2	X3	Y3	Z3	X4	Y4	Z4	X5	Y5	Z5	X6	Y6	Z6	X7	Y7	Z7	X8	Y8	Z8	X9	Y9	Z9	X10	Y10	Z10	X11	Y11	Z11	X12	Y12	Z12	X13	Y13	Z13	X14	Y14	Z14	X15	Y15	Z15	X16	Y16	Z16	X17	Y17	Z17	X18	Y18	Z18	X19	Y19	Z19	X20	Y20	Z20	X21	Y21	Z21	X22	Y22	Z22	X23	Y23	Z23	X24	Y24	Z24	X25	Y25	Z25	X26	Y26	Z26	X27	Y27	Z27	X28	Y28	Z28	X29	Y29	Z29	X30	Y30	Z30	X31	Y31	Z31	X32	Y32	Z32	X33	Y33	Z33	

53	45.181428571429	824.343883017303	1022.535161585145	497.116112278039	1034.160895153829	1420.895586812869	285.709163644525	1140.303904063313	1348.060276037134	443.036003936764	1078.009697950037	1443.936078352565	614.229774849529	1055.077392767091	1489.157130984516	430.812139949558	1050.180610659041	937.911262144077	602.016835659796	1024.731754504360	961.544524163782	329.055936039956	1087.129112848218	737.553650135421	573.186525597654	1000.189366525373	632.674116261698	628.874744814846	1075.004402102375	579.338349863658	546.785332611432	1072.118363465689	489.342420205131	550.278165089945	1103.232507605847	785.884959639133	364.563494071014	1062.850644334998	661.267617498580	283.393120336432	1163.334148518311	595.842023764822	349.039391981049	1174.829952226534	504.266520835092	340.821099863256	1104.427859263588	440.071673591334	330.128682602276	962.118962142703	407.539412292398	276.373886757328	939.880343579081	278.767852893974	328.736166526629	1038.898166386534	402.692734034312	557.081976543805	962.336674645069	302.506150788570	617.489277321887	998.667208171755	206.334403215081	552.743114555615	856.270239298373	44.350762153481	521.172937754740	1028.094287798292	97.177359296338	558.818340229064	938.363944117149	37.510214928442	596.724754843915	1147.113955400044	40.004533878323	589.615456708139	746.080959803733	233.307635642475	358.541441436353	799.250439751774	177.557266547515	282.110574415587	903.538068335089	173.214169914593	306.786221722979	966.131218853888	49.287466808770	286.329274535391	920.074311768858	1075.680875052795	200.981194185123	951.980133576470	815.082280608333	205.695765843897	1125.878805570744	1141.204384721685	801.135356800833	1346.888257109319	1071.426145622141	697.130453960536	
54	45.193571428571	823.751305645172	1023.179182098119	498.252030711990	1033.160565369851	1421.210506713285	286.530243842798	1139.960609220931	1348.191153522154	443.264702062292	1078.850797063667	1444.341365695989	614.717589186643	1054.877553252929	1489.388624091230	431.489054534793	1049.550192727877	937.933945703087	602.671001576053	1023.561387655420	962.350007593706	329.740523034536	1084.525158395573	736.730321739753	572.991588395104	996.652170612207	632.660666953758	629.099299596567	1070.445362959271	578.585866620478	546.709360311128	1066.561116515510	488.738826353370	550.079726925256	1104.541893182611	790.088830779229	365.975014782455	1067.320494596292	664.802690806977	284.369513166919	1168.996280121926	601.553747181026	350.215026454027	1182.922685375177	510.472623201232	342.017788661227	1115.063471450298	444.217949698294	331.005025727950	974.267788215529	405.797142342337	277.461349139067	958.099074280566	276.041810846908	329.251099598781	1033.071646755912	402.256901581846	557.007475865230	956.101695403655	302.419777016052	617.530204402079	991.904474437149	206.098872262373	552.674553877663	848.891235720695	44.298688254615	521.240319258538	1020.708587382225	97.153442691863	558.846248829190	930.993166688933	37.496123028839	596.800265942556	1139.720098475131	40.038858258010	589.669801400180	766.626618154078	219.925995518447	359.551310966439	822.654126055178	168.685083155321	282.012252481649	926.984706696913	170.181155777839	306.379336853823	996.638130736933	50.967600388574	283.641206683391	913.518286256595	1077.283562330403	204.516289183795	939.936241932226	816.192015984936	209.885997757291	1134.753297410139	1142.273612695211	799.457880543311	1356.525006634821	1084.778231821119	690.806201773923	
55	45.205714285714	823.218993018394	1023.808492196445	499.374798938774	1032.092557484396	1421.537068278006	287.312960261589	1139.645794307570	1348.321489395959	443.371531285369	1079.797942183739	1444.704520782570	615.123191108023	1054.635891063187	1489.598078362667	432.136187316981	1049.027006066907	937.818826477039	603.114788092137	1022.356369029671	963.156358924293	330.254037887791	1081.849149640539	735.831211427908	572.484934555538	993.160333075704	632.626369092271	629.238613773233	1065.795872224657	577.782764044991	546.460292211599	1060.919509478027	488.107839749599	549.789896464932	1105.432712806897	793.957533626732	367.060317601137	1070.987258653204	668.048826168267	285.174639366774	1173.594676052186	606.751908688516	351.207466829523	1189.804907025241	516.384243725892	343.008169512227	1124.878106308155	448.121292122068	331.676494693651	986.194446773941	402.962372253161	278.278093444400	976.981354415259	272.407922044459	329.552992997490	1027.172025814741	401.786753985199	556.857005019332	949.825558388411	302.296654268249	617.523185647740	985.088787914340	205.831720564566	552.568724892230	841.506678176200	44.216013080107	521.300184319484	1013.289421190288	97.113807640538	558.843159425692	923.609327594094	37.467759515205	596.872276544142	1132.311845690786	40.088895844189	589.702269122365	788.832409001339	204.685296822058	360.326728430803	847.678625779237	158.302672252803	281.789877165987	951.736472304525	166.194541734596	305.851342898251	1028.828416343512	52.437568938162	281.047144679842	907.335834129245	1078.881718191094	207.958934138286	928.719122116620	817.444489106229	213.798516332765	1143.090840869661	1143.204978678033	797.299786686661	1364.949574775768	1097.904784544397	684.180872253501	
56	45.217857142857	822.762935780081	1024.370711310802	500.483662443629	1030.958132459864	1421.852538193667	288.062740426040	1139.352887964136	1348.423092816261	443.368219511492	1080.817627624608	1444.973503894413	615.461255889157	1054.357933763281	1489.756662248103	432.764788653924	1048.623636900988	937.562571380032	603.345616122778	1021.159609024665	963.916209278576	330.588600914556	1079.144947463616	734.851947556366	571.716450846851	989.761670186618	632.549676830513	629.310621585570	1061.123697613890	576.920951432957	546.069333294523	1055.263942552656	487.435549327203	549.436077514831	1105.923029525004	797.374125201077	367.871546895268	1073.875680330628	670.882671886169	285.818356977371	1177.108270547132	611.263727999730	352.085195819079	1195.440764681322	521.836863730310	343.849084601458	1133.793347951042	451.695076425360	332.184550514117	997.945321645894	399.133391132542	278.764439164068	996.380070797618	268.096068289056	329.642281883541	1021.257044247595	401.265022164608	556.643931906879	943.554413065654	302.129035653344	617.479427621206	978.246652665416	205.523432313781	552.431647515825	834.118012546901	44.107136223892	521.358045579369	1005.839887859867	97.056298074742	558.808752278702	916.214425619143	37.425751755089	596.943547695608	1124.892478088298	40.152207423482	589.718675218416	812.642042995401	188.145339449045	360.723879368399	874.216509441261	146.895136011468	281.385427740377	977.557375939479	161.579282183437	305.244411197771	1062.212071609070	53.956382894690	278.742059806815	901.605602261133	1080.415509164617	211.254187000135	918.396311233721	818.749392334213	217.404720436958	1150.912281422892	1143.910280829876	794.691714588405	1372.208766120064	1110.645973773894	677.300491998643	
